<?xml version="1.0" encoding="UTF-8"?>
<!DOCTYPE svg PUBLIC "-//W3C//DTD SVG 1.1//EN" "http://www.w3.org/Graphics/SVG/1.1/DTD/svg11.dtd">
<svg xmlns="http://www.w3.org/2000/svg" version="1.1" width="1000px" height="268px" style="shape-rendering:geometricPrecision; text-rendering:geometricPrecision; image-rendering:optimizeQuality; fill-rule:evenodd; clip-rule:evenodd" xmlns:xlink="http://www.w3.org/1999/xlink">
<g><path style="opacity:0.991" fill="#77de94" d="M 587.5,-0.5 C 597.167,-0.5 606.833,-0.5 616.5,-0.5C 644.397,2.86508 668.564,14.1984 689,33.5C 691.062,37.6672 690.729,41.6672 688,45.5C 678.833,56 669,65.8333 658.5,75C 655.833,75.6667 653.167,75.6667 650.5,75C 619.007,52.1332 587.34,51.7998 555.5,74C 526.516,102.262 520.682,134.762 538,171.5C 559.905,204.695 590.072,215.528 628.5,204C 636.493,200.675 643.826,196.341 650.5,191C 652.833,190.333 655.167,190.333 657.5,191C 668.667,200.833 679.167,211.333 689,222.5C 691,225.833 691,229.167 689,232.5C 666.629,253.567 640.129,265.234 609.5,267.5C 604.5,267.5 599.5,267.5 594.5,267.5C 539.683,261.204 501.516,232.537 480,181.5C 460.599,119.392 475.433,67.225 524.5,25C 543.441,11.3002 564.441,2.80016 587.5,-0.5 Z"/></g>
<g><path style="opacity:0.991" fill="#77de94" d="M 854.5,-0.5 C 864.5,-0.5 874.5,-0.5 884.5,-0.5C 938.799,9.28257 975.299,40.2826 994,92.5C 996.049,100.924 997.882,109.257 999.5,117.5C 999.5,127.833 999.5,138.167 999.5,148.5C 990.151,208.659 956.151,247.159 897.5,264C 890.07,265.499 882.737,266.666 875.5,267.5C 871.167,267.5 866.833,267.5 862.5,267.5C 805.993,261.18 767.16,231.513 746,178.5C 728.864,120.2 742.364,70.3666 786.5,29C 806.476,12.8428 829.142,3.00943 854.5,-0.5 Z M 860.5,57.5 C 897.237,56.1093 923.071,72.1093 938,105.5C 948.844,138.285 942.011,166.785 917.5,191C 894.204,209.604 868.538,213.604 840.5,203C 805.702,184.572 791.202,155.738 797,116.5C 805.918,83.4084 827.084,63.7418 860.5,57.5 Z"/></g>
<g><path style="opacity:0.989" fill="#76de93" d="M -0.5,53.5 C -0.5,38.1667 -0.5,22.8333 -0.5,7.5C 0.977392,5.19301 2.97739,3.35968 5.5,2C 70.1667,1.33333 134.833,1.33333 199.5,2C 202,3.16667 203.833,5 205,7.5C 205.667,22.8333 205.667,38.1667 205,53.5C 203.833,56 202,57.8333 199.5,59C 134.833,59.6667 70.1667,59.6667 5.5,59C 2.97739,57.6403 0.977392,55.807 -0.5,53.5 Z"/></g>
<g><path style="opacity:0.988" fill="#76dd93" d="M 254.5,1.5 C 317.834,1.33334 381.168,1.5 444.5,2C 446,3.5 447.5,5 449,6.5C 450.599,21.1116 450.932,35.7783 450,50.5C 449.421,54.0911 447.588,56.9245 444.5,59C 398.168,59.5 351.835,59.6667 305.5,59.5C 305.5,74.5 305.5,89.5 305.5,104.5C 339.502,104.333 373.502,104.5 407.5,105C 410,106.167 411.833,108 413,110.5C 413.667,125.5 413.667,140.5 413,155.5C 411.413,158.756 408.913,160.923 405.5,162C 356.167,162.667 306.833,162.667 257.5,162C 253.104,161.27 250.27,158.77 249,154.5C 248.333,105.833 248.333,57.1667 249,8.5C 250.666,6.00432 252.5,3.67098 254.5,1.5 Z"/></g>
<g><path style="opacity:0.991" fill="#77dd93" d="M -0.5,259.5 C -0.5,241.833 -0.5,224.167 -0.5,206.5C 33.2246,167.266 67.5579,128.433 102.5,90C 105.366,88.5432 108.366,88.2099 111.5,89C 123.035,98.8679 133.535,109.701 143,121.5C 143.667,124.167 143.667,126.833 143,129.5C 120.951,155.093 98.7847,180.593 76.5,206C 116.5,206.333 156.5,206.667 196.5,207C 200.888,207.72 203.721,210.22 205,214.5C 205.667,228.833 205.667,243.167 205,257.5C 204.214,260.583 202.381,262.749 199.5,264C 134.5,264.667 69.5,264.667 4.5,264C 2.96252,262.293 1.29585,260.793 -0.5,259.5 Z"/></g>
<g><path style="opacity:0.978" fill="#77dd93" d="M 591.5,104.5 C 629.501,104.333 667.501,104.5 705.5,105C 708,106.167 709.833,108 711,110.5C 711.667,125.5 711.667,140.5 711,155.5C 709.413,158.756 706.913,160.923 703.5,162C 666.107,162.981 628.773,162.648 591.5,161C 588.825,159.164 586.992,156.664 586,153.5C 585.068,138.778 585.401,124.112 587,109.5C 588.707,107.963 590.207,106.296 591.5,104.5 Z"/></g>
<g><path style="opacity:0.985" fill="#77dd93" d="M 257.5,206.5 C 318.834,206.333 380.168,206.5 441.5,207C 446.333,207.833 449.167,210.667 450,215.5C 450.667,229.167 450.667,242.833 450,256.5C 449.021,259.625 447.187,262.125 444.5,264C 381.167,264.667 317.833,264.667 254.5,264C 251.619,262.749 249.786,260.583 249,257.5C 248.333,243.167 248.333,228.833 249,214.5C 250.419,210.245 253.253,207.578 257.5,206.5 Z"/></g>
</svg>
