<?xml version="1.0" encoding="UTF-8"?> <svg xmlns="http://www.w3.org/2000/svg" xmlns:xlink="http://www.w3.org/1999/xlink" version="1.1" id="Layer_1" x="0px" y="0px" viewBox="0 0 370 200" style="enable-background:new 0 0 370 200;" xml:space="preserve"> <style type="text/css"> .st0{fill:#14233B;} </style> <g> <path class="st0" d="M4.6,79.4c0.2-0.3,0.2-0.8,0.3-1.3c7.3,0,14.5,0,21.9,0c-0.6,1.1-1.4,1.6-2.4,1.9c-1.9,0.8-3.9,0.9-5.8,0.9 c-0.8,0-0.9,0.3-0.9,0.9c-0.2,2-0.6,4.3-0.8,6.3c-0.2,1.6-0.3,3.2-0.6,4.7c-0.3,2-0.6,4.1-0.8,6.1c-0.2,0.8-0.2,1.6-0.3,2.4 c-2.2,0-4.3,0-6.5,0c0.9-6.9,1.9-13.9,2.7-20.8c-2.2,0-4.4,0-6.6,0C4.6,80.4,4.6,79.9,4.6,79.4z"></path> <path class="st0" d="M4.6,111.4c2.2,0,4.4,0,6.6,0c0,0.3,0,0.6,0,1.1c-0.8,0-1.7,0-2.7,0c0,3,0,5.8,0,8.8c-1.4,0.3-1.6,0.3-1.6-0.9 c0-2.5,0-5,0-7.7c-0.9,0-1.7,0-2.5,0C4.6,112.1,4.6,111.7,4.6,111.4z"></path> <g> <path class="st0" d="M322.5,123.6c0.9-2.2,1.9-4.3,3-6.5c2.2-4.7,4.4-9.5,6.6-14.2c0.3-0.6,0.6-0.8,1.4-0.8 c4.4,0.2,9-0.2,13.2-1.3c0.6-0.2,1.6-0.3,1.6-1.1c0-0.9-0.9-1.1-1.6-1.1c-2.5-0.5-4.9-0.9-7.4-1.3c-2-0.2-4.3-0.2-6.3-0.2 c-0.6,0-0.8-0.3-0.9-0.8c-3.2-6.6-6.3-13.4-9.3-20c0.8,0,1.7,0,2.5,0c0.3,0,0.5,0.2,0.8,0.2c2.7,0.3,5.5,0.5,8.2,0.9 c6.3,0.9,12.5,2.8,18.3,5.8c3.8,1.9,7.1,4.4,9.8,7.7c1.6,1.9,2.5,4.3,3.2,6.6c0,1.6,0,3.2,0,4.7c0,0-0.2,0-0.2,0.2 c-0.8,3.6-2.8,6.6-5.5,9.1c-3.6,3.5-7.9,5.7-12.5,7.4c-6,2.4-12.3,3.6-18.8,4.3c-0.9,0-1.7,0.2-2.7,0.3 C324.8,123.6,323.6,123.6,322.5,123.6z"></path> <path class="st0" d="M315.2,123.6c-0.9-0.2-1.7-0.3-2.7-0.3c-7.9-0.6-15.5-2.5-22.5-5.8c-0.5-0.3-1.1-0.5-1.6-0.9 c11,0,22.1,0,33.3,0c-0.6,2.4-1.1,4.7-1.6,7.3C318.4,123.6,316.8,123.6,315.2,123.6z"></path> <path class="st0" d="M320.3,76.3c0.5,2.2,0.9,4.3,1.4,6.5c0,0.2,0,0.3,0.2,0.6c-11,0-22.1,0-33.1,0v-0.2c1.1-0.5,2.2-1.1,3.3-1.6 c5.2-2.2,10.6-3.6,16.1-4.4c2.7-0.3,5.2-0.6,7.9-0.9C317.4,76.3,318.8,76.3,320.3,76.3z"></path> <path class="st0" d="M324.8,102.1c-0.9,4.1-1.9,8-2.7,12c-0.5,0-0.8,0-1.1,0c-12,0-23.8,0-35.8,0c-0.5,0-1.3-0.2-1.6-0.6 c-3.5-2.5-6.1-5.5-7.6-9.6c-0.3-1.1-0.5-2.2-0.8-3.3c7.7,0,15.3,0,23,0c-1.3,2.4-2.4,4.7-3.5,7.1c0.9,0.3,1.4,0,2-0.6 c1.7-1.9,3.5-3.8,5.2-5.7c0.2-0.3,0.6-0.5,1.1-0.5c5.7,0.3,11.2,0.8,16.9,1.1C321.5,102.3,323.1,102.1,324.8,102.1z"></path> <path class="st0" d="M275.3,98.2c0.6-1.6,0.9-3,1.6-4.4c1.6-3.3,4.3-5.8,7.3-7.9c0.3-0.2,0.6-0.3,0.9-0.3c12.1,0,24.3,0,36.4,0 c0.6,0,0.8,0.2,0.9,0.8c0.8,3.5,1.6,6.9,2.4,10.4c-0.3,0-0.6,0-0.8,0c-5.4,0.2-10.6,0.5-15.9,0.6c-1.6,0-3.2,0.3-4.7,0.5 c-0.6,0.2-1.1,0-1.6-0.6c-1.6-1.9-3.2-3.6-4.7-5.4c-0.8-0.9-0.8-0.9-2.4-0.8c1.1,2.4,2.4,4.6,3.5,6.9 C290.6,98.2,283.2,98.2,275.3,98.2z"></path> </g> <path class="st0" d="M180.4,78.2c4.6,0,8.8-0.2,13.2,0c2.5,0,4.9,1.4,5.4,3.9c0.2,0.9,0,1.9-0.2,2.8c-0.3,2.2-0.6,4.3-0.9,6.3 c-0.3,1.9-0.5,3.8-0.8,5.7c-0.5,2.2-2,3.5-4.1,4.3c-0.8,0.3-1.9,0.6-2.8,0.6c-4.3,0-8.4,0-12.6,0c-0.2,0-0.2,0-0.5,0 C178.4,93.8,179.3,86,180.4,78.2z M184.2,98.7c1.4,0,2.7,0.2,3.9,0s2.4-1.3,2.5-2.2c0.2-1.3,0.5-2.5,0.6-3.8c0.3-3,0.8-6,1.1-9 c0.2-1.4-0.6-2.5-2-2.7c-1.1-0.2-2-0.2-3.2-0.2c-0.6,0-0.9,0.3-0.9,0.9s-0.2,1.4-0.2,2c-0.3,2-0.6,4.3-0.9,6.3 c-0.2,1.6-0.5,3.2-0.6,4.7C184.5,96.1,184.4,97.4,184.2,98.7z"></path> <path class="st0" d="M39.6,91.3c3,3.5,5.8,6.8,8.8,10.2c-1.7,0.8-4.1,0.3-5-1.1c-1.7-2.4-3.8-4.4-5.8-6.6c-0.6-0.8-1.3-1.4-2.2-2.4 c-0.5,3.6-0.9,6.9-1.4,10.4c-2,0-4.3,0-6.5,0c0.9-7.9,2-15.6,3.2-23.6c0.3,0,0.6,0,0.9,0c3.9,0,7.9,0,11.8,0c1.4,0,2.7,0.3,3.8,1.1 c1.7,1.1,2.4,2.7,1.9,4.6c-0.2,0.6-0.2,1.4-0.3,2c-0.9,2.8-3.2,4.3-6,5C41.8,91.3,40.7,91.3,39.6,91.3z M35.9,88.9 c1.3,0,2.5,0,3.6,0c1.6-0.2,2.7-1.4,2.8-3c0-0.6,0.2-1.3,0.2-1.9c0.3-1.4-0.3-2.5-1.6-2.8c-0.9-0.2-2-0.2-3.2-0.3 c-0.8-0.2-1.1,0.2-1.1,1.1c0,1.3-0.3,2.4-0.5,3.6C36,86.5,36,87.6,35.9,88.9z"></path> <path class="st0" d="M232.3,91.4c-0.5,3.5-0.9,6.9-1.3,10.2c-2.2,0-4.4,0-6.6,0c1.1-7.9,2-15.8,3.2-23.6c0.5,0,0.9,0,1.4,0 c3.8,0,7.6,0,11.4,0c1.6,0,3,0.5,4.3,1.3c1.3,0.9,1.7,2.2,1.6,3.8c-0.2,1.6-0.3,3-1.3,4.3c-1.7,2.4-4.1,3.6-7.1,3.6 c-0.3,0-0.6,0-1.3,0c3,3.6,6,6.9,8.8,10.4c-2,0.9-3.9,0.3-5.5-1.6c-2.4-2.8-4.7-5.5-7.1-8.2C232.6,91.6,232.5,91.6,232.3,91.4z M232.8,88.9c1.1,0,2.2,0,3.2,0c1.7,0,3-1.1,3.3-2.8c0.2-0.6,0.3-1.3,0.3-1.9c0.3-1.9-0.3-3-2-3.3c-1.3-0.2-2.5,0-3.6,0 C233.4,83.5,233.1,86.2,232.8,88.9z"></path> <path class="st0" d="M171.3,101.8c-0.8,0-1.7,0-2.5,0c-0.3,0-0.6-0.3-0.9-0.6c-3.6-3.6-7.3-7.3-10.9-10.9c-0.3-0.3-0.5-0.6-0.6-0.9 c-0.2,0-0.2,0.2-0.3,0.2c-0.5,3.9-1.1,8-1.6,12.1c-0.9,0-1.9,0-3,0c1.1-7.9,2-15.6,3.2-23.6c0.9,0,1.7,0,2.7,0 c0.3,0,0.5,0.2,0.8,0.5c3.2,3.5,6.5,6.9,9.6,10.4c0.6,0.6,1.3,1.3,2,1.9c0.6-4.3,1.1-8.5,1.7-12.6c0.9,0,1.9,0,3,0 C173.3,86,172.4,93.8,171.3,101.8z"></path> <path class="st0" d="M64.9,81.3c-1.6,3.5-3.2,6.9-4.7,10.4c2,0,4.1,0,6.1,0c-1.1,1.1-2.4,1.9-3.6,2.2c-0.9,0.3-2,0.3-3,0.3 c-0.5,0-0.8,0.2-1.1,0.6c-0.9,2-2,4.1-3,6.3c-0.2,0.5-0.5,0.6-0.9,0.6c-0.8,0-1.6,0-2.7,0c0.5-1.1,0.9-2.2,1.6-3.2 c3.2-6.6,6.3-13.1,9.3-19.7c0.3-0.5,0.5-0.8,1.1-0.8c1.9,0,3.9,0,5.8,0c0.6,0,0.8,0.2,0.9,0.8c0.9,5,1.9,10.2,2.8,15.3 c0.5,2.4,0.8,4.6,1.3,6.9c0,0.2,0,0.3,0,0.6c-2.2,0-4.4,0-6.6,0C67.2,94.9,66.1,88.3,64.9,81.3z"></path> <path class="st0" d="M265.7,83.5c-0.3-0.5-0.5-0.9-0.6-1.3c-0.5-0.8-1.3-1.3-2.2-1.3c-0.8,0-1.6,0-2.4,0.2c-1.4,0.3-2,2-1.3,3.2 c0.6,0.8,1.4,1.6,2,2.2c1.6,1.6,3.3,3.2,4.9,4.7c0.9,0.9,1.4,2,1.6,3.3c0.2,2.4-1.6,5.4-3.9,6.1c-2.8,0.9-5.7,1.3-8.7,0.8 c-0.9-0.2-1.9-0.3-2.8-0.6c-1.1-0.3-1.7-1.3-2-2.4c0-0.2,0.2-0.6,0.3-0.6c0.9-0.5,2-0.9,3-1.4c0,1.7,1.1,2.4,2.7,2.4 c0.8,0,1.6,0,2.2-0.2c2.2-0.6,2.5-2.7,0.9-4.3c-2-1.9-4.1-3.9-6.1-6c-2.5-2.5-1.9-7.3,1.3-9c1.9-0.9,3.8-1.4,5.8-1.4 c1.7,0,3.5,0.2,5.2,0.3c1.4,0.3,2.7,1.1,3.2,2.7c0.2,0.5,0.2,0.8-0.3,0.9C267.6,82.6,266.7,83.1,265.7,83.5z"></path> <path class="st0" d="M209.8,98.7c2.8,0,5.5,0,8.2,0c-0.2,0.6-0.3,1.4-0.3,1.9c0.2,1.1-0.5,1.1-1.3,1.1c-4.1,0-8.2,0-12.3,0 c-0.3,0-0.6,0-1.1,0c0.2-0.9,0.2-1.9,0.3-2.8c0.3-2,0.6-4.1,0.8-6.1c0.3-2.5,0.8-5.2,1.1-7.7c0.3-2,0.5-4.1,0.8-6.1 c0-0.5,0-0.8,0.6-0.8c5,0,10.1,0,15.3,0c-1.1,1.7-2.8,2.2-4.4,2.5c-1.7,0.3-3.5,0.3-5.2,0.5c-0.3,2.5-0.6,5-0.9,7.7 c2.8,0,5.5,0,8.2,0c-0.2,0.9-0.3,1.9-0.5,3c-0.6,0-1.3,0-1.9,0c-1.9,0-3.8,0-5.7,0c-0.5,0-0.6,0.2-0.8,0.8 C210.4,94.6,210.1,96.6,209.8,98.7z"></path> <path class="st0" d="M125.1,88.9c2.8,0,5.5,0,8.2,0c-0.2,0.9-0.3,1.9-0.5,2.8c-2.7,0-5.4,0-8,0c-0.2,1.3-0.5,2.4-0.6,3.6 c-0.3,1.9-0.5,3.9-0.8,5.8c0,0.2-0.3,0.5-0.5,0.5c-1.9,0-3.9,0-6,0c0.2-1.4,0.3-2.7,0.5-4.1c0.2-1.6,0.5-3.2,0.6-4.7 c0.3-2,0.6-4.3,0.9-6.3s0.5-4.1,0.8-6.1c0-0.6,0-1.3,0.2-1.7c0-0.3,0.6-0.5,0.8-0.5c2.7,0,5.5,0,8.2,0c2.2,0,4.4,0,6.8,0 c-0.8,1.3-1.9,1.9-3.2,2.2c-1.9,0.5-3.8,0.9-5.8,0.5c-0.6-0.2-0.6,0.3-0.8,0.6c-0.3,2-0.5,4.1-0.8,6.1 C125.2,88.1,125.2,88.4,125.1,88.9z"></path> <path class="st0" d="M98.9,78.2c2.4,0,4.4,0,6.6,0c-0.9,6.8-1.7,13.6-2.7,20.5c3.2,0,6.1,0,9.5,0c-0.3,0.3-0.3,0.6-0.6,0.8 c-1.3,1.4-2.8,2.2-4.6,2.2c-3.6,0.2-7.3,0-11.2,0C96.9,93.8,97.8,86,98.9,78.2z"></path> <path class="st0" d="M81.9,101.7c1.1-7.9,2-15.6,3.2-23.5c2,0,4.3,0,6.5,0c-1.1,7.9-2,15.6-3.2,23.5 C86.2,101.7,84.1,101.7,81.9,101.7z"></path> <path class="st0" d="M141.5,78.2c2.2,0,4.3,0,6.5,0c-1.1,7.9-2,15.6-3.2,23.5c-2,0-4.3,0-6.5,0C139.4,93.8,140.5,86,141.5,78.2z"></path> <path class="st0" d="M235,116.9c1.1,1.4,2.2,2.8,3.5,4.4c-0.9,0.2-1.7,0.2-2.4-0.6c-0.8-1.3-1.7-2.4-2.8-3.6c0,1.6,0,3,0,4.4 c-0.5,0-0.9,0-1.4,0c0-3.3,0-6.6,0-10.1c1.3,0.2,2.7,0.2,3.9,0.3c1.1,0.2,1.9,1.4,1.9,2.5c0,1.3-0.9,2.4-2.2,2.7 C235.4,116.8,235.3,116.8,235,116.9z M233.4,112.4c0,1.3,0,2.4,0,3.5c0.9,0,2,0,2.5-0.9c0.3-0.5,0.2-1.3,0-1.7 C235.4,112.4,234.3,112.7,233.4,112.4z"></path> <path class="st0" d="M21.7,115.4c1.9,0,3.6,0,5.4,0c0-1.3,0-2.5,0-3.9c0.5,0,0.8,0,1.3,0c0,3.3,0,6.6,0,9.9c-0.3,0-0.8,0-1.3,0 c0-1.6,0-3.2,0-4.9c-1.9,0-3.6,0-5.5,0c0,1.6,0,3.2,0,4.7c-1.4,0.2-1.4,0.2-1.4-1.1c0-2.8,0-5.7,0-8.7c0.5,0,0.9,0,1.4,0 C21.7,112.7,21.7,114,21.7,115.4z"></path> <path class="st0" d="M81.9,117.1c0,1.4,0,2.7,0,4.3c-0.5,0-0.8,0-1.3,0c0-3.3,0-6.6,0-10.1c1.3,0.2,2.7,0.2,3.9,0.5 c1.3,0.3,1.7,1.3,1.6,2.7c0,1.1-0.9,2-2.2,2.4c-0.2,0-0.2,0-0.5,0c1.1,1.4,2.2,2.8,3.5,4.4c-0.9,0-1.6,0.3-2.2-0.6 C83.9,119.4,82.8,118.3,81.9,117.1C81.9,117.1,81.9,117.1,81.9,117.1z M81.9,112.5c0,1.1,0,2.2,0,3.3c2.2,0,2.8-0.6,2.8-1.7 S83.9,112.5,81.9,112.5z"></path> <path class="st0" d="M95,121.2c1.7-3.5,3.3-6.9,5.2-10.6c1.7,3.6,3.3,7.1,5,10.6c-1.3,0.3-1.6,0.3-1.9-0.8c-0.5-1.6-1.4-2-3-2 s-2.8,0.2-3.3,2C96.7,121.4,96.1,121.5,95,121.2z M100.2,113.8c-0.6,1.3-1.1,2.4-1.6,3.6c1.1,0,2.2,0,3.3,0 C101.1,116.2,100.7,115.1,100.2,113.8z"></path> <path class="st0" d="M39.6,112.4c0,0.9,0,1.7,0,2.7c1.1,0,2.2,0,3.3,0s1.1,0,0.9,1.3c-1.4,0-2.7,0-4.3,0c0,1.3,0,2.4,0,3.6 c1.4,0,2.8,0,4.3,0c0,0.5,0,0.8,0,1.3c-1.7,0-3.5,0-5.4,0c-0.2,0-0.5-0.3-0.5-0.6c0-3.2,0-6.1,0-9.3c1.9,0,3.8,0,5.8,0 c0,0.3,0,0.6,0,0.9C42.5,112.4,41.2,112.4,39.6,112.4z"></path> <path class="st0" d="M171.6,116.5c0,1.3,0,2.4,0,3.6c1.4,0,2.8,0,4.3,0c0,0.5,0,0.8,0,1.3c-1.9,0-3.8,0-5.7,0c0-3.3,0-6.6,0-9.9 c1.9,0,3.8,0,5.7,0c0,0.3,0,0.6,0,0.9c-1.4,0-2.8,0-4.3,0c0,0.9,0,1.7,0,2.7c1.4,0,2.7,0,4.1,0c0,0.5,0,0.8,0,1.3 C174.3,116.5,173,116.5,171.6,116.5z"></path> <path class="st0" d="M222.2,120.1c0,0.5,0,0.8,0,1.3c-1.9,0-3.8,0-5.7,0c0-3.3,0-6.6,0-9.9c1.9,0,3.8,0,5.7,0c0,0.3,0,0.6,0,1.1 c-1.4,0-2.8,0-4.3,0c0,0.9,0,1.7,0,2.7c1.3,0,2.7,0,4.1,0c0,0.5,0,0.8,0,1.3c-1.3,0-2.7,0-4.1,0c0,1.3,0,2.4,0,3.6 C219.4,120.1,220.8,120.1,222.2,120.1z"></path> <path class="st0" d="M188.6,114.9c0.6-0.9,1.1-1.7,1.6-2.5c0.5-0.9,1.1-1.1,2.2-0.8c-0.8,1.4-1.6,2.7-2.5,4.1 c-0.3,0.5-0.3,0.8,0,1.3c0.9,1.4,1.9,2.8,2.8,4.3c-0.9,0.5-1.4,0.3-1.9-0.5c-0.2-0.3-0.5-0.8-0.6-1.1c-0.5-0.6-0.8-1.3-1.4-2 c-0.6,0.9-1.3,1.9-1.7,2.8c-0.5,0.9-1.1,1.4-2.2,0.9c0.5-0.9,1.1-1.7,1.6-2.7c0.3-0.6,0.6-1.3,1.1-1.7c0.5-0.6,0.3-1.1,0-1.6 c-0.8-1.3-1.6-2.5-2.4-3.8c1.3-0.3,1.4-0.3,2,0.8C187.5,113,188,114,188.6,114.9z"></path> <path class="st0" d="M130.6,112.4c0,0.9,0,1.9,0,2.7c1.4,0,2.8,0,4.3,0c0,0.5,0,0.8,0,1.3c-1.4,0-2.8,0-4.3,0c0,1.3,0,2.4,0,3.6 c1.4,0,2.8,0,4.3,0c0,0.5,0,0.8,0,1.3c-1.7,0-3.6,0-5.5,0c0-3.3,0-6.5,0-9.9c1.9,0,3.6,0,5.5,0c0,0.3,0,0.6,0,0.9 C133.4,112.4,132.2,112.4,130.6,112.4z"></path> <path class="st0" d="M261.1,118.8c0.3,0,0.5-0.2,0.8-0.2c0.2,0,0.3-0.2,0.6-0.2c0.2,0.3,0.2,0.6,0.5,0.8c0.6,0.5,1.1,0.9,1.7,0.9 c0.8,0.2,1.6-0.3,2-1.1c0.3-0.8,0.2-1.4-0.5-1.9c-0.9-0.5-1.9-0.8-2.8-1.4c-0.6-0.3-1.1-0.9-1.4-1.4c-0.6-1.6,0.8-3,2.2-3.3 c1.6-0.3,2.7,0.2,3.6,1.6c-0.6,0.5-1.1,0.8-1.7,0c-0.5-0.6-1.6-0.6-2.4-0.2c-0.8,0.5-0.8,1.6,0,2c0.9,0.5,1.7,0.8,2.7,1.3 c1.3,0.6,1.9,1.7,1.7,2.8c-0.3,1.6-1.6,2.5-3,2.7c-1.4,0-2.7-0.2-3.5-1.4C261.5,119.6,261.5,119.3,261.1,118.8z"></path> <path class="st0" d="M120.5,111.4c-1.4,3.5-3,6.9-4.6,10.6c-1.6-3.6-3-7.1-4.4-10.6c1.4-0.3,1.4-0.3,1.9,0.9c0.8,2,1.7,3.9,2.5,6.1 c0.6-1.6,1.3-3.2,1.9-4.6c0.2-0.6,0.5-1.1,0.6-1.6C119.1,111.3,119.1,111.3,120.5,111.4z"></path> <path class="st0" d="M202.8,116.9c0,1.4,0,2.8,0,4.3c-0.5,0-0.8,0-1.3,0c0-3.3,0-6.5,0-10.1c1.3,0.2,2.7,0.2,3.9,0.3 c1.1,0.2,1.7,1.4,1.7,2.5s-0.6,2-1.7,2.5c-0.5,0.2-0.9,0.3-1.4,0.3C203.9,117.1,203.4,116.9,202.8,116.9z M202.8,115.7 c1.1,0,2.2,0.3,2.8-0.6c0.3-0.5,0.3-1.3,0-1.7c-0.6-1.1-1.7-0.6-2.8-0.9C202.8,113.6,202.8,114.6,202.8,115.7z"></path> <path class="st0" d="M250.3,112.4c0,3,0,6,0,8.8c-1.4,0.2-1.4,0.2-1.4-1.1c0-2.5,0-5,0-7.6c-0.8,0-1.6,0-2.5,0c0-0.5,0-0.8,0-1.1 c2.2,0,4.4,0,6.6,0c0,0.3,0,0.6,0,0.9C252.2,112.4,251.2,112.4,250.3,112.4z"></path> <path class="st0" d="M67.7,112.5c-0.9,0-1.9,0-2.7,0c0-0.3,0-0.6,0-0.9c2.2,0,4.4,0,6.6,0c0,0.3,0,0.6,0,0.9c-0.8,0-1.7,0-2.7,0 c0,3,0,6,0,8.8c-0.5,0-0.8,0-1.3,0C67.7,118.4,67.7,115.5,67.7,112.5z"></path> <path class="st0" d="M146.1,120.1c1.1,0,2,0,3,0c0.2,1.3,0.2,1.3-0.9,1.3c-1.1,0-2,0-3.3,0c0-3.3,0-6.6,0-9.9c0.3,0,0.8,0,1.1,0 C146.1,114.3,146.1,117.1,146.1,120.1z"></path> </g> </svg> 